<?xml version="1.0" encoding="iso-8859-1"?>
<!-- Uploaded to: SVG Repo, www.svgrepo.com, Generator: SVG Repo Mixer Tools -->
<svg version="1.1" id="Layer_1" xmlns="http://www.w3.org/2000/svg" xmlns:xlink="http://www.w3.org/1999/xlink" 
	 viewBox="0 0 512 512" xml:space="preserve">
<g>
	<polygon style="fill:#D0FBFD;" points="162.576,126.867 134.275,143.207 161.492,190.35 188.679,172.077 	"/>
	<polygon style="fill:#D0FBFD;" points="349.424,126.867 377.725,143.207 350.508,190.35 323.321,172.077 	"/>
	<rect x="239.66" y="73.532" style="fill:#D0FBFD;" width="32.681" height="87.89"/>
</g>
<path style="fill:#50D1DD;" d="M256,138.894l-76.255,182.468L256,503.83c100.775,0,182.468-81.693,182.468-182.468
	S356.775,138.894,256,138.894z"/>
<path style="fill:#A0F6FA;" d="M73.532,321.362c0,100.775,81.693,182.468,182.468,182.468V138.894
	C155.225,138.894,73.532,220.587,73.532,321.362z"/>
<path style="fill:#E5FAFC;" d="M257.514,171.585v299.553c81.898-0.817,148.273-67.693,148.273-149.776
	S339.412,172.402,257.514,171.585z"/>
<path style="fill:#FFFFFF;" d="M257.514,171.585c63.88,1.035,115.592,67.824,115.592,149.776s-51.712,148.741-115.592,149.776
	c-0.501,0.011-1.013,0.011-1.514,0.011c-82.595,0-149.787-67.192-149.787-149.787S173.405,171.574,256,171.574
	C256.501,171.574,257.013,171.574,257.514,171.585z"/>
<circle style="fill:#78E3EC;" cx="256" cy="321.362" r="16.34"/>
<g>
	<path style="fill:#FF9269;" d="M256,223.319c-4.512,0-8.17-3.658-8.17-8.17v-10.894c0-4.512,3.658-8.17,8.17-8.17
		s8.17,3.658,8.17,8.17v10.894C264.17,219.661,260.512,223.319,256,223.319z"/>
	<path style="fill:#FF9269;" d="M331.104,254.428c-2.09,0-4.182-0.797-5.777-2.393c-3.191-3.191-3.191-8.364,0-11.554l7.703-7.703
		c3.191-3.191,8.364-3.191,11.554,0c3.191,3.191,3.191,8.364,0,11.554l-7.703,7.703
		C335.286,253.631,333.194,254.428,331.104,254.428z"/>
	<path style="fill:#FF9269;" d="M373.106,329.532h-10.894c-4.512,0-8.17-3.658-8.17-8.17s3.658-8.17,8.17-8.17h10.894
		c4.512,0,8.17,3.658,8.17,8.17S377.618,329.532,373.106,329.532z"/>
	<path style="fill:#FF9269;" d="M338.807,412.339c-2.09,0-4.182-0.797-5.777-2.393l-7.703-7.703c-3.191-3.191-3.191-8.364,0-11.554
		c3.191-3.191,8.364-3.191,11.554,0l7.703,7.703c3.191,3.191,3.191,8.364,0,11.554C342.989,411.541,340.898,412.339,338.807,412.339
		z"/>
	<path style="fill:#FF9269;" d="M256,446.638c-4.512,0-8.17-3.658-8.17-8.17v-10.894c0-4.512,3.658-8.17,8.17-8.17
		s8.17,3.658,8.17,8.17v10.894C264.17,442.98,260.512,446.638,256,446.638z"/>
	<path style="fill:#FF9269;" d="M173.193,412.339c-2.09,0-4.182-0.797-5.777-2.393c-3.191-3.191-3.191-8.364,0-11.554l7.703-7.703
		c3.191-3.191,8.364-3.191,11.554,0c3.191,3.191,3.191,8.364,0,11.554l-7.703,7.703
		C177.375,411.541,175.284,412.339,173.193,412.339z"/>
	<path style="fill:#FF9269;" d="M149.787,329.532h-10.894c-4.512,0-8.17-3.658-8.17-8.17s3.658-8.17,8.17-8.17h10.894
		c4.512,0,8.17,3.658,8.17,8.17S154.299,329.532,149.787,329.532z"/>
	<path style="fill:#FF9269;" d="M180.896,254.428c-2.09,0-4.182-0.797-5.777-2.393l-7.703-7.703c-3.191-3.191-3.191-8.364,0-11.554
		c3.191-3.191,8.364-3.191,11.554,0l7.703,7.703c3.191,3.191,3.191,8.364,0,11.554C185.078,253.631,182.988,254.428,180.896,254.428
		z"/>
</g>
<path d="M371.711,169.967l9.006-15.599l0.56,0.324c1.287,0.743,2.692,1.096,4.077,1.096c2.824,0,5.57-1.466,7.083-4.086
	c2.256-3.908,0.917-8.904-2.99-11.16l-35.936-20.747c-0.005-0.003-7.639-4.41-7.639-4.41c-3.909-2.257-8.904-0.918-11.161,2.99
	c-2.256,3.908-0.917,8.904,2.99,11.161l0.561,0.324l-8.965,15.528c-15.356-6.42-31.719-10.89-48.787-13.091v-23.428
	c19.761-9.38,32.681-29.461,32.681-51.676C313.191,25.656,287.536,0,256,0s-57.191,25.656-57.191,57.191
	c0,22.215,12.92,42.296,32.681,51.676v23.428c-17.067,2.201-33.431,6.671-48.787,13.091l-8.965-15.528l0.561-0.324
	c3.908-2.256,5.246-7.253,2.99-11.161c-2.256-3.909-7.253-5.246-11.161-2.99l-7.633,4.408c-0.005,0.003-35.941,20.75-35.941,20.75
	c-3.908,2.256-5.246,7.253-2.99,11.161c1.513,2.621,4.259,4.086,7.083,4.086c1.386,0,2.791-0.353,4.077-1.096l0.56-0.324
	l9.006,15.599c-45.516,34.869-74.927,89.758-74.927,151.394C65.362,426.48,150.882,512,256,512s190.638-85.52,190.638-190.638
	C446.638,259.726,417.227,204.837,371.711,169.967z M352.414,138.028l14.151,8.17l-8.286,14.351
	c-4.584-2.926-9.304-5.654-14.142-8.188L352.414,138.028z M215.149,57.191c0-22.526,18.325-40.851,40.851-40.851
	c22.526,0,40.851,18.325,40.851,40.851c0,13.066-6.255,25.098-16.34,32.682V73.532c0-4.512-3.658-8.17-8.17-8.17H239.66
	c-4.512,0-8.17,3.658-8.17,8.17v16.342C221.404,82.289,215.149,70.257,215.149,57.191z M247.83,81.702h16.34v49.208
	c-2.71-0.114-5.432-0.186-8.17-0.186s-5.46,0.072-8.17,0.186V81.702z M145.435,146.198l14.151-8.17l8.276,14.335
	c-4.838,2.534-9.558,5.262-14.142,8.188L145.435,146.198z M256,495.66c-96.108,0-174.298-78.19-174.298-174.298
	S159.892,147.064,256,147.064s174.298,78.19,174.298,174.298S352.108,495.66,256,495.66z"/>
<path d="M247.83,298.256c-9.509,3.373-16.34,12.454-16.34,23.105s6.831,19.733,16.34,23.105v12.299c0,4.512,3.658,8.17,8.17,8.17
	s8.17-3.658,8.17-8.17v-12.299c9.509-3.373,16.34-12.454,16.34-23.105s-6.831-19.733-16.34-23.105V247.83
	c0-4.512-3.658-8.17-8.17-8.17s-8.17,3.658-8.17,8.17V298.256z M256,329.532c-4.506,0-8.17-3.665-8.17-8.17s3.665-8.17,8.17-8.17
	s8.17,3.665,8.17,8.17S260.506,329.532,256,329.532z"/>
<path d="M256,163.404c-87.098,0-157.957,70.86-157.957,157.957c0,35.787,12.36,70.873,34.803,98.796
	c2.827,3.516,7.969,4.077,11.486,1.249c3.518-2.827,4.076-7.969,1.249-11.486c-20.41-25.395-31.198-56.018-31.198-88.56
	c0-78.088,63.529-141.617,141.617-141.617s141.617,63.529,141.617,141.617S334.088,462.979,256,462.979
	c-32.541,0-63.164-10.788-88.559-31.199c-3.52-2.828-8.66-2.268-11.486,1.249c-2.827,3.518-2.268,8.66,1.249,11.486
	c27.923,22.444,63.009,34.804,98.795,34.804c87.098,0,157.957-70.86,157.957-157.957S343.098,163.404,256,163.404z"/>
</svg>